<?xml version="1.0" encoding="UTF-8" standalone="no"?>
<!-- Created with Inkscape (http://www.inkscape.org/) -->

<svg
   width="210mm"
   height="297mm"
   viewBox="0 0 210 297"
   version="1.1"
   id="svg5"
   inkscape:version="1.2.2 (732a01da63, 2022-12-09)"
   sodipodi:docname="świnka.svg"
   xmlns:inkscape="http://www.inkscape.org/namespaces/inkscape"
   xmlns:sodipodi="http://sodipodi.sourceforge.net/DTD/sodipodi-0.dtd"
   xmlns="http://www.w3.org/2000/svg"
   xmlns:svg="http://www.w3.org/2000/svg">
  <sodipodi:namedview
     id="namedview7"
     pagecolor="#ffffff"
     bordercolor="#000000"
     borderopacity="0.25"
     inkscape:showpageshadow="2"
     inkscape:pageopacity="0.0"
     inkscape:pagecheckerboard="0"
     inkscape:deskcolor="#d1d1d1"
     inkscape:document-units="mm"
     showgrid="false"
     inkscape:zoom="0.71624579"
     inkscape:cx="337.87284"
     inkscape:cy="291.79927"
     inkscape:window-width="958"
     inkscape:window-height="981"
     inkscape:window-x="-8"
     inkscape:window-y="0"
     inkscape:window-maximized="0"
     inkscape:current-layer="layer6" />
  <defs
     id="defs2" />
  <g
     inkscape:label="Warstwa 1"
     inkscape:groupmode="layer"
     id="layer1">
    <ellipse
       style="fill:#1b6d74;fill-opacity:1;stroke:#e2ed30;stroke-width:0;stroke-dasharray:none"
       id="path840"
       ry="65.938431"
       rx="66.492538"
       cy="154.22574"
       cx="103.80223" />
  </g>
  <g
     inkscape:groupmode="layer"
     id="layer2"
     inkscape:label="Warstwa 2">
    <ellipse
       style="fill:#1b6d74;fill-opacity:1;stroke:#e2ed30;stroke-width:0;stroke-dasharray:none"
       id="path8907"
       cx="-3.3973558"
       cy="142.55344"
       rx="16.957634"
       ry="44.13261"
       transform="matrix(0.90824658,-0.41843535,0.56971173,0.8218446,0,0)" />
  </g>
  <g
     inkscape:groupmode="layer"
     id="layer3"
     inkscape:label="Warstwa 3"
     transform="translate(1.4776119,-4.0634328)">
    <g
       id="g8916"
       transform="matrix(0.92703519,0,0,0.92303358,0.43296216,10.999899)"
       inkscape:label="g8916">
      <rect
         style="fill:#1b6d74;fill-opacity:1;stroke:#e2ed30;stroke-width:0;stroke-dasharray:none"
         id="rect8910"
         width="30.291044"
         height="33.985073"
         x="25.836779"
         y="138.26041"
         transform="rotate(-0.14428518)" />
      <rect
         style="fill:#1b6d74;fill-opacity:1;stroke:#e2ed30;stroke-width:0;stroke-dasharray:none"
         id="rect8912"
         width="19.208956"
         height="13.667911"
         x="102.2598"
         y="127.78928"
         transform="rotate(27.169612)" />
    </g>
  </g>
  <g
     inkscape:groupmode="layer"
     id="layer4"
     inkscape:label="Warstwa 4">
    <g
       id="g8927">
      <rect
         style="fill:#1b6d74;fill-opacity:1;stroke:#e2ed30;stroke-width:0;stroke-dasharray:none"
         id="rect8921"
         width="24.749998"
         height="26.238016"
         x="68.818214"
         y="200.66537"
         transform="matrix(1,0,-0.02815784,0.99960349,0,0)" />
      <rect
         style="fill:#1b6d74;fill-opacity:1;stroke:#e2ed30;stroke-width:0;stroke-dasharray:none"
         id="rect8923"
         width="24.749998"
         height="26.599581"
         x="102.99895"
         y="203.353"
         transform="matrix(1,0,-0.16665058,0.98601602,0,0)" />
    </g>
    <g
       id="g8941"
       transform="matrix(0.95943772,0,0,1,6.7975838,-1.2268063e-7)">
      <g
         id="g8933"
         transform="matrix(1.1956817,0,-0.28496308,2.1153073,112.49489,-253.22789)">
        <rect
           style="fill:#1b6d74;fill-opacity:1;stroke:#e2ed30;stroke-width:0;stroke-dasharray:none"
           id="rect8929"
           width="24.749998"
           height="26.238016"
           x="68.818214"
           y="200.66537"
           transform="matrix(1,0,-0.02815784,0.99960349,0,0)" />
        <rect
           style="fill:#1b6d74;fill-opacity:1;stroke:#e2ed30;stroke-width:0;stroke-dasharray:none"
           id="rect8931"
           width="24.749998"
           height="26.599581"
           x="102.99895"
           y="203.353"
           transform="matrix(1,0,-0.16665058,0.98601602,0,0)" />
      </g>
      <rect
         style="fill:#1b6d74;fill-opacity:1;stroke:#e2ed30;stroke-width:0;stroke-dasharray:none"
         id="rect8935"
         width="3.9181104"
         height="14.888819"
         x="122.50625"
         y="211.57796" />
    </g>
  </g>
  <g
     inkscape:groupmode="layer"
     id="layer5"
     inkscape:label="Warstwa 5">
    <g
       id="g9236">
      <g
         id="g9225"
         transform="translate(1.8470149,1.8470149)">
        <ellipse
           style="fill:#1b6d74;fill-opacity:1;stroke:#e2ed30;stroke-width:0;stroke-dasharray:none"
           id="path8944"
           ry="14.497008"
           rx="14.366405"
           cy="137.26447"
           cx="179.71065" />
        <ellipse
           style="fill:#1b6d74;fill-opacity:1;stroke:#e2ed30;stroke-width:0;stroke-dasharray:none"
           id="path9209"
           cx="226.52406"
           cy="-121.33202"
           rx="4.6698251"
           ry="10.94032"
           transform="matrix(0.37936242,0.92524816,-0.730295,0.68313191,0,0)" />
        <g
           id="g9218"
           transform="matrix(-1.0212857,-0.69018213,0.31698965,-0.89710652,322.59278,384.75308)">
          <path
             style="fill:#ffffff;fill-opacity:1;stroke:#e2ed30;stroke-width:0;stroke-dasharray:none"
             id="path9000"
             sodipodi:type="arc"
             sodipodi:cx="214.69791"
             sodipodi:cy="-70.267479"
             sodipodi:rx="5.1879678"
             sodipodi:ry="5.5081573"
             sodipodi:start="0"
             sodipodi:end="3.1415927"
             sodipodi:arc-type="slice"
             d="m 219.88587,-70.267479 a 5.1879678,5.5081573 0 0 1 -2.59398,4.770204 5.1879678,5.5081573 0 0 1 -5.18797,0 5.1879678,5.5081573 0 0 1 -2.59398,-4.770204 h 5.18797 z"
             transform="matrix(0.57714883,0.81663898,-0.83297936,0.55330406,0,0)" />
          <path
             style="fill:#ffffff;fill-opacity:1;stroke:#e2ed30;stroke-width:0;stroke-dasharray:none"
             id="path9214"
             sodipodi:type="arc"
             sodipodi:cx="-219.89087"
             sodipodi:cy="-22.65667"
             sodipodi:rx="4.8986616"
             sodipodi:ry="6.1174598"
             sodipodi:start="0"
             sodipodi:end="3.1415927"
             sodipodi:arc-type="slice"
             d="m -214.99221,-22.65667 a 4.8986616,6.1174598 0 0 1 -2.44933,5.297876 4.8986616,6.1174598 0 0 1 -4.89866,0 4.8986616,6.1174598 0 0 1 -2.44933,-5.297876 h 4.89866 z"
             transform="matrix(-0.84930111,-0.52790873,0.24114291,-0.97048962,0,0)" />
        </g>
      </g>
      <ellipse
         style="fill:#1b6d74;fill-opacity:1;stroke:#e2ed30;stroke-width:0;stroke-dasharray:none"
         id="path9227"
         cx="100.00839"
         cy="190.07559"
         rx="10.897388"
         ry="5.4486942"
         transform="rotate(-24.462477)" />
    </g>
  </g>
  <g
     inkscape:groupmode="layer"
     id="layer6"
     inkscape:label="Warstwa 6">
    <ellipse
       style="fill:#ffffff;fill-opacity:1;stroke:#e2ed30;stroke-width:0;stroke-dasharray:none"
       id="path9239"
       cx="64.648819"
       cy="133.99937"
       rx="8.7504454"
       ry="8.8810492" />
    <path
       style="fill:#ffffff;fill-opacity:1;stroke:#e2ed30;stroke-width:0;stroke-dasharray:none"
       id="path9315"
       sodipodi:type="arc"
       sodipodi:cx="-118.2926"
       sodipodi:cy="-109.13663"
       sodipodi:rx="26.09273"
       sodipodi:ry="11.42203"
       sodipodi:start="0"
       sodipodi:end="3.1608558"
       sodipodi:arc-type="slice"
       d="m -92.199873,-109.13663 a 26.09273,11.42203 0 0 1 -13.191727,9.928238 26.09273,11.42203 0 0 1 -26.23648,-0.110622 26.09273,11.42203 0 0 1 -12.75241,-10.037626 l 26.08789,0.22001 z"
       transform="matrix(-0.99962231,-0.0274816,0.07832322,-0.99692802,0,0)" />
  </g>
</svg>
