<?xml version="1.0" encoding="UTF-8" standalone="no"?>
<!-- Created with Inkscape (http://www.inkscape.org/) -->

<svg
   width="210mm"
   height="297mm"
   viewBox="0 0 210 297"
   version="1.1"
   id="svg5"
   inkscape:version="1.2.2 (732a01da63, 2022-12-09)"
   sodipodi:docname="Zadanie 45b.svg"
   xmlns:inkscape="http://www.inkscape.org/namespaces/inkscape"
   xmlns:sodipodi="http://sodipodi.sourceforge.net/DTD/sodipodi-0.dtd"
   xmlns="http://www.w3.org/2000/svg"
   xmlns:svg="http://www.w3.org/2000/svg">
  <sodipodi:namedview
     id="namedview7"
     pagecolor="#ffffff"
     bordercolor="#000000"
     borderopacity="0.25"
     inkscape:showpageshadow="2"
     inkscape:pageopacity="0.0"
     inkscape:pagecheckerboard="0"
     inkscape:deskcolor="#d1d1d1"
     inkscape:document-units="mm"
     showgrid="false"
     inkscape:zoom="0.71624579"
     inkscape:cx="396.51193"
     inkscape:cy="561.95793"
     inkscape:window-width="958"
     inkscape:window-height="981"
     inkscape:window-x="952"
     inkscape:window-y="0"
     inkscape:window-maximized="0"
     inkscape:current-layer="layer1" />
  <defs
     id="defs2" />
  <g
     inkscape:label="Warstwa 1"
     inkscape:groupmode="layer"
     id="layer1">
    <g
       id="g4113"
       transform="translate(32.876865,-25.119402)">
      <g
         id="g4059"
         transform="translate(1.108209,77.94403)">
        <g
           id="g4041"
           style="opacity:0.70903"
           transform="matrix(0.42857145,0,0,0.42857145,6.06877,68.445089)">
          <rect
             style="fill:#ed1313;fill-opacity:1;stroke:#dfacfd;stroke-width:0;stroke-dasharray:none"
             id="rect4035"
             width="75.727615"
             height="75.727615"
             x="55.77985"
             y="98.261192" />
          <rect
             style="fill:#13eddc;fill-opacity:1;stroke:#dfacfd;stroke-width:0;stroke-dasharray:none"
             id="rect4037"
             width="39.335896"
             height="77.356163"
             x="186.71428"
             y="229.177"
             transform="matrix(0.70432461,-0.70987804,0,1,0,0)" />
          <rect
             style="fill:#f0f709;fill-opacity:1;stroke:#dfacfd;stroke-width:0;stroke-dasharray:none"
             id="rect4039"
             width="41.552509"
             height="75.727615"
             x="101.99245"
             y="-234.3022"
             transform="matrix(-0.72898231,0.68453254,-1,0,0,0)" />
        </g>
        <g
           id="g4049"
           style="opacity:0.70903"
           transform="matrix(0.42857145,0,0,0.42857145,45.225486,68.445089)">
          <rect
             style="fill:#ed1313;fill-opacity:1;stroke:#dfacfd;stroke-width:0;stroke-dasharray:none"
             id="rect4043"
             width="75.727615"
             height="75.727615"
             x="55.77985"
             y="98.261192" />
          <rect
             style="fill:#13eddc;fill-opacity:1;stroke:#dfacfd;stroke-width:0;stroke-dasharray:none"
             id="rect4045"
             width="39.335896"
             height="77.356163"
             x="186.71428"
             y="229.177"
             transform="matrix(0.70432461,-0.70987804,0,1,0,0)" />
          <rect
             style="fill:#f0f709;fill-opacity:1;stroke:#dfacfd;stroke-width:0;stroke-dasharray:none"
             id="rect4047"
             width="41.552509"
             height="75.727615"
             x="101.99245"
             y="-234.3022"
             transform="matrix(-0.72898231,0.68453254,-1,0,0,0)" />
        </g>
        <g
           id="g4057"
           style="opacity:0.70903"
           transform="matrix(0.42857145,0,0,0.42857145,84.382202,69.183895)">
          <rect
             style="fill:#ed1313;fill-opacity:1;stroke:#dfacfd;stroke-width:0;stroke-dasharray:none"
             id="rect4051"
             width="75.727615"
             height="75.727615"
             x="55.77985"
             y="98.261192" />
          <rect
             style="fill:#13eddc;fill-opacity:1;stroke:#dfacfd;stroke-width:0;stroke-dasharray:none"
             id="rect4053"
             width="39.335896"
             height="77.356163"
             x="186.71428"
             y="229.177"
             transform="matrix(0.70432461,-0.70987804,0,1,0,0)" />
          <rect
             style="fill:#f0f709;fill-opacity:1;stroke:#dfacfd;stroke-width:0;stroke-dasharray:none"
             id="rect4055"
             width="41.552509"
             height="75.727615"
             x="101.99245"
             y="-234.3022"
             transform="matrix(-0.72898231,0.68453254,-1,0,0,0)" />
        </g>
      </g>
      <g
         id="g4085"
         transform="translate(0.73880597,38.787314)">
        <g
           id="g4067"
           style="opacity:0.70903"
           transform="matrix(0.42857145,0,0,0.42857145,6.06877,68.445089)">
          <rect
             style="fill:#ed1313;fill-opacity:1;stroke:#dfacfd;stroke-width:0;stroke-dasharray:none"
             id="rect4061"
             width="75.727615"
             height="75.727615"
             x="55.77985"
             y="98.261192" />
          <rect
             style="fill:#13eddc;fill-opacity:1;stroke:#dfacfd;stroke-width:0;stroke-dasharray:none"
             id="rect4063"
             width="39.335896"
             height="77.356163"
             x="186.71428"
             y="229.177"
             transform="matrix(0.70432461,-0.70987804,0,1,0,0)" />
          <rect
             style="fill:#f0f709;fill-opacity:1;stroke:#dfacfd;stroke-width:0;stroke-dasharray:none"
             id="rect4065"
             width="41.552509"
             height="75.727615"
             x="101.99245"
             y="-234.3022"
             transform="matrix(-0.72898231,0.68453254,-1,0,0,0)" />
        </g>
        <g
           id="g4075"
           style="opacity:0.70903"
           transform="matrix(0.42857145,0,0,0.42857145,45.225486,68.445089)">
          <rect
             style="fill:#ed1313;fill-opacity:1;stroke:#dfacfd;stroke-width:0;stroke-dasharray:none"
             id="rect4069"
             width="75.727615"
             height="75.727615"
             x="55.77985"
             y="98.261192" />
          <rect
             style="fill:#13eddc;fill-opacity:1;stroke:#dfacfd;stroke-width:0;stroke-dasharray:none"
             id="rect4071"
             width="39.335896"
             height="77.356163"
             x="186.71428"
             y="229.177"
             transform="matrix(0.70432461,-0.70987804,0,1,0,0)" />
          <rect
             style="fill:#f0f709;fill-opacity:1;stroke:#dfacfd;stroke-width:0;stroke-dasharray:none"
             id="rect4073"
             width="41.552509"
             height="75.727615"
             x="101.99245"
             y="-234.3022"
             transform="matrix(-0.72898231,0.68453254,-1,0,0,0)" />
        </g>
        <g
           id="g4083"
           style="opacity:0.70903"
           transform="matrix(0.42857145,0,0,0.42857145,84.382202,69.183895)">
          <rect
             style="fill:#ed1313;fill-opacity:1;stroke:#dfacfd;stroke-width:0;stroke-dasharray:none"
             id="rect4077"
             width="75.727615"
             height="75.727615"
             x="55.77985"
             y="98.261192" />
          <rect
             style="fill:#13eddc;fill-opacity:1;stroke:#dfacfd;stroke-width:0;stroke-dasharray:none"
             id="rect4079"
             width="39.335896"
             height="77.356163"
             x="186.71428"
             y="229.177"
             transform="matrix(0.70432461,-0.70987804,0,1,0,0)" />
          <rect
             style="fill:#f0f709;fill-opacity:1;stroke:#dfacfd;stroke-width:0;stroke-dasharray:none"
             id="rect4081"
             width="41.552509"
             height="75.727615"
             x="101.99245"
             y="-234.3022"
             transform="matrix(-0.72898231,0.68453254,-1,0,0,0)" />
        </g>
      </g>
      <g
         id="g4111">
        <g
           id="g4093"
           style="opacity:0.70903"
           transform="matrix(0.42857145,0,0,0.42857145,6.06877,68.445089)">
          <rect
             style="fill:#ed1313;fill-opacity:1;stroke:#dfacfd;stroke-width:0;stroke-dasharray:none"
             id="rect4087"
             width="75.727615"
             height="75.727615"
             x="55.77985"
             y="98.261192" />
          <rect
             style="fill:#13eddc;fill-opacity:1;stroke:#dfacfd;stroke-width:0;stroke-dasharray:none"
             id="rect4089"
             width="39.335896"
             height="77.356163"
             x="186.71428"
             y="229.177"
             transform="matrix(0.70432461,-0.70987804,0,1,0,0)" />
          <rect
             style="fill:#f0f709;fill-opacity:1;stroke:#dfacfd;stroke-width:0;stroke-dasharray:none"
             id="rect4091"
             width="41.552509"
             height="75.727615"
             x="101.99245"
             y="-234.3022"
             transform="matrix(-0.72898231,0.68453254,-1,0,0,0)" />
        </g>
        <g
           id="g4101"
           style="opacity:0.70903"
           transform="matrix(0.42857145,0,0,0.42857145,45.225486,68.445089)">
          <rect
             style="fill:#ed1313;fill-opacity:1;stroke:#dfacfd;stroke-width:0;stroke-dasharray:none"
             id="rect4095"
             width="75.727615"
             height="75.727615"
             x="55.77985"
             y="98.261192" />
          <rect
             style="fill:#13eddc;fill-opacity:1;stroke:#dfacfd;stroke-width:0;stroke-dasharray:none"
             id="rect4097"
             width="39.335896"
             height="77.356163"
             x="186.71428"
             y="229.177"
             transform="matrix(0.70432461,-0.70987804,0,1,0,0)" />
          <rect
             style="fill:#f0f709;fill-opacity:1;stroke:#dfacfd;stroke-width:0;stroke-dasharray:none"
             id="rect4099"
             width="41.552509"
             height="75.727615"
             x="101.99245"
             y="-234.3022"
             transform="matrix(-0.72898231,0.68453254,-1,0,0,0)" />
        </g>
        <g
           id="g4109"
           style="opacity:0.70903"
           transform="matrix(0.42857145,0,0,0.42857145,84.382202,69.183895)">
          <rect
             style="fill:#ed1313;fill-opacity:1;stroke:#dfacfd;stroke-width:0;stroke-dasharray:none"
             id="rect4103"
             width="75.727615"
             height="75.727615"
             x="55.77985"
             y="98.261192" />
          <rect
             style="fill:#13eddc;fill-opacity:1;stroke:#dfacfd;stroke-width:0;stroke-dasharray:none"
             id="rect4105"
             width="39.335896"
             height="77.356163"
             x="186.71428"
             y="229.177"
             transform="matrix(0.70432461,-0.70987804,0,1,0,0)" />
          <rect
             style="fill:#f0f709;fill-opacity:1;stroke:#dfacfd;stroke-width:0;stroke-dasharray:none"
             id="rect4107"
             width="41.552509"
             height="75.727615"
             x="101.99245"
             y="-234.3022"
             transform="matrix(-0.72898231,0.68453254,-1,0,0,0)" />
        </g>
      </g>
    </g>
    <g
       id="g4193"
       transform="translate(15.884328,-7.3880592)">
      <g
         id="g4139"
         transform="translate(1.108209,77.94403)">
        <g
           id="g4121"
           style="opacity:0.70903"
           transform="matrix(0.42857145,0,0,0.42857145,6.06877,68.445089)">
          <rect
             style="fill:#ed1313;fill-opacity:1;stroke:#dfacfd;stroke-width:0;stroke-dasharray:none"
             id="rect4115"
             width="75.727615"
             height="75.727615"
             x="55.77985"
             y="98.261192" />
          <rect
             style="fill:#13eddc;fill-opacity:1;stroke:#dfacfd;stroke-width:0;stroke-dasharray:none"
             id="rect4117"
             width="39.335896"
             height="77.356163"
             x="186.71428"
             y="229.177"
             transform="matrix(0.70432461,-0.70987804,0,1,0,0)" />
          <rect
             style="fill:#f0f709;fill-opacity:1;stroke:#dfacfd;stroke-width:0;stroke-dasharray:none"
             id="rect4119"
             width="41.552509"
             height="75.727615"
             x="101.99245"
             y="-234.3022"
             transform="matrix(-0.72898231,0.68453254,-1,0,0,0)" />
        </g>
        <g
           id="g4129"
           style="opacity:0.70903"
           transform="matrix(0.42857145,0,0,0.42857145,45.225486,68.445089)">
          <rect
             style="fill:#ed1313;fill-opacity:1;stroke:#dfacfd;stroke-width:0;stroke-dasharray:none"
             id="rect4123"
             width="75.727615"
             height="75.727615"
             x="55.77985"
             y="98.261192" />
          <rect
             style="fill:#13eddc;fill-opacity:1;stroke:#dfacfd;stroke-width:0;stroke-dasharray:none"
             id="rect4125"
             width="39.335896"
             height="77.356163"
             x="186.71428"
             y="229.177"
             transform="matrix(0.70432461,-0.70987804,0,1,0,0)" />
          <rect
             style="fill:#f0f709;fill-opacity:1;stroke:#dfacfd;stroke-width:0;stroke-dasharray:none"
             id="rect4127"
             width="41.552509"
             height="75.727615"
             x="101.99245"
             y="-234.3022"
             transform="matrix(-0.72898231,0.68453254,-1,0,0,0)" />
        </g>
        <g
           id="g4137"
           style="opacity:0.70903"
           transform="matrix(0.42857145,0,0,0.42857145,84.382202,69.183895)">
          <rect
             style="fill:#ed1313;fill-opacity:1;stroke:#dfacfd;stroke-width:0;stroke-dasharray:none"
             id="rect4131"
             width="75.727615"
             height="75.727615"
             x="55.77985"
             y="98.261192" />
          <rect
             style="fill:#13eddc;fill-opacity:1;stroke:#dfacfd;stroke-width:0;stroke-dasharray:none"
             id="rect4133"
             width="39.335896"
             height="77.356163"
             x="186.71428"
             y="229.177"
             transform="matrix(0.70432461,-0.70987804,0,1,0,0)" />
          <rect
             style="fill:#f0f709;fill-opacity:1;stroke:#dfacfd;stroke-width:0;stroke-dasharray:none"
             id="rect4135"
             width="41.552509"
             height="75.727615"
             x="101.99245"
             y="-234.3022"
             transform="matrix(-0.72898231,0.68453254,-1,0,0,0)" />
        </g>
      </g>
      <g
         id="g4165"
         transform="translate(0.73880597,38.787314)">
        <g
           id="g4147"
           style="opacity:0.70903"
           transform="matrix(0.42857145,0,0,0.42857145,6.06877,68.445089)">
          <rect
             style="fill:#ed1313;fill-opacity:1;stroke:#dfacfd;stroke-width:0;stroke-dasharray:none"
             id="rect4141"
             width="75.727615"
             height="75.727615"
             x="55.77985"
             y="98.261192" />
          <rect
             style="fill:#13eddc;fill-opacity:1;stroke:#dfacfd;stroke-width:0;stroke-dasharray:none"
             id="rect4143"
             width="39.335896"
             height="77.356163"
             x="186.71428"
             y="229.177"
             transform="matrix(0.70432461,-0.70987804,0,1,0,0)" />
          <rect
             style="fill:#f0f709;fill-opacity:1;stroke:#dfacfd;stroke-width:0;stroke-dasharray:none"
             id="rect4145"
             width="41.552509"
             height="75.727615"
             x="101.99245"
             y="-234.3022"
             transform="matrix(-0.72898231,0.68453254,-1,0,0,0)" />
        </g>
        <g
           id="g4155"
           style="opacity:0.70903"
           transform="matrix(0.42857145,0,0,0.42857145,45.225486,68.445089)">
          <rect
             style="fill:#ed1313;fill-opacity:1;stroke:#dfacfd;stroke-width:0;stroke-dasharray:none"
             id="rect4149"
             width="75.727615"
             height="75.727615"
             x="55.77985"
             y="98.261192" />
          <rect
             style="fill:#13eddc;fill-opacity:1;stroke:#dfacfd;stroke-width:0;stroke-dasharray:none"
             id="rect4151"
             width="39.335896"
             height="77.356163"
             x="186.71428"
             y="229.177"
             transform="matrix(0.70432461,-0.70987804,0,1,0,0)" />
          <rect
             style="fill:#f0f709;fill-opacity:1;stroke:#dfacfd;stroke-width:0;stroke-dasharray:none"
             id="rect4153"
             width="41.552509"
             height="75.727615"
             x="101.99245"
             y="-234.3022"
             transform="matrix(-0.72898231,0.68453254,-1,0,0,0)" />
        </g>
        <g
           id="g4163"
           style="opacity:0.70903"
           transform="matrix(0.42857145,0,0,0.42857145,84.382202,69.183895)">
          <rect
             style="fill:#ed1313;fill-opacity:1;stroke:#dfacfd;stroke-width:0;stroke-dasharray:none"
             id="rect4157"
             width="75.727615"
             height="75.727615"
             x="55.77985"
             y="98.261192" />
          <rect
             style="fill:#13eddc;fill-opacity:1;stroke:#dfacfd;stroke-width:0;stroke-dasharray:none"
             id="rect4159"
             width="39.335896"
             height="77.356163"
             x="186.71428"
             y="229.177"
             transform="matrix(0.70432461,-0.70987804,0,1,0,0)" />
          <rect
             style="fill:#f0f709;fill-opacity:1;stroke:#dfacfd;stroke-width:0;stroke-dasharray:none"
             id="rect4161"
             width="41.552509"
             height="75.727615"
             x="101.99245"
             y="-234.3022"
             transform="matrix(-0.72898231,0.68453254,-1,0,0,0)" />
        </g>
      </g>
      <g
         id="g4191">
        <g
           id="g4173"
           style="opacity:0.70903"
           transform="matrix(0.42857145,0,0,0.42857145,6.06877,68.445089)">
          <rect
             style="fill:#ed1313;fill-opacity:1;stroke:#dfacfd;stroke-width:0;stroke-dasharray:none"
             id="rect4167"
             width="75.727615"
             height="75.727615"
             x="55.77985"
             y="98.261192" />
          <rect
             style="fill:#13eddc;fill-opacity:1;stroke:#dfacfd;stroke-width:0;stroke-dasharray:none"
             id="rect4169"
             width="39.335896"
             height="77.356163"
             x="186.71428"
             y="229.177"
             transform="matrix(0.70432461,-0.70987804,0,1,0,0)" />
          <rect
             style="fill:#f0f709;fill-opacity:1;stroke:#dfacfd;stroke-width:0;stroke-dasharray:none"
             id="rect4171"
             width="41.552509"
             height="75.727615"
             x="101.99245"
             y="-234.3022"
             transform="matrix(-0.72898231,0.68453254,-1,0,0,0)" />
        </g>
        <g
           id="g4181"
           style="opacity:0.70903"
           transform="matrix(0.42857145,0,0,0.42857145,45.225486,68.445089)">
          <rect
             style="fill:#ed1313;fill-opacity:1;stroke:#dfacfd;stroke-width:0;stroke-dasharray:none"
             id="rect4175"
             width="75.727615"
             height="75.727615"
             x="55.77985"
             y="98.261192" />
          <rect
             style="fill:#13eddc;fill-opacity:1;stroke:#dfacfd;stroke-width:0;stroke-dasharray:none"
             id="rect4177"
             width="39.335896"
             height="77.356163"
             x="186.71428"
             y="229.177"
             transform="matrix(0.70432461,-0.70987804,0,1,0,0)" />
          <rect
             style="fill:#f0f709;fill-opacity:1;stroke:#dfacfd;stroke-width:0;stroke-dasharray:none"
             id="rect4179"
             width="41.552509"
             height="75.727615"
             x="101.99245"
             y="-234.3022"
             transform="matrix(-0.72898231,0.68453254,-1,0,0,0)" />
        </g>
        <g
           id="g4189"
           style="opacity:0.70903"
           transform="matrix(0.42857145,0,0,0.42857145,84.382202,69.183895)">
          <rect
             style="fill:#ed1313;fill-opacity:1;stroke:#dfacfd;stroke-width:0;stroke-dasharray:none"
             id="rect4183"
             width="75.727615"
             height="75.727615"
             x="55.77985"
             y="98.261192" />
          <rect
             style="fill:#13eddc;fill-opacity:1;stroke:#dfacfd;stroke-width:0;stroke-dasharray:none"
             id="rect4185"
             width="39.335896"
             height="77.356163"
             x="186.71428"
             y="229.177"
             transform="matrix(0.70432461,-0.70987804,0,1,0,0)" />
          <rect
             style="fill:#f0f709;fill-opacity:1;stroke:#dfacfd;stroke-width:0;stroke-dasharray:none"
             id="rect4187"
             width="41.552509"
             height="75.727615"
             x="101.99245"
             y="-234.3022"
             transform="matrix(-0.72898231,0.68453254,-1,0,0,0)" />
        </g>
      </g>
    </g>
    <g
       id="g4273"
       transform="translate(-1.4776119,11.451493)">
      <g
         id="g4219"
         transform="translate(1.108209,77.94403)">
        <g
           id="g4201"
           style="opacity:0.70903"
           transform="matrix(0.42857145,0,0,0.42857145,6.06877,68.445089)">
          <rect
             style="fill:#ed1313;fill-opacity:1;stroke:#dfacfd;stroke-width:0;stroke-dasharray:none"
             id="rect4195"
             width="75.727615"
             height="75.727615"
             x="55.77985"
             y="98.261192" />
          <rect
             style="fill:#13eddc;fill-opacity:1;stroke:#dfacfd;stroke-width:0;stroke-dasharray:none"
             id="rect4197"
             width="39.335896"
             height="77.356163"
             x="186.71428"
             y="229.177"
             transform="matrix(0.70432461,-0.70987804,0,1,0,0)" />
          <rect
             style="fill:#f0f709;fill-opacity:1;stroke:#dfacfd;stroke-width:0;stroke-dasharray:none"
             id="rect4199"
             width="41.552509"
             height="75.727615"
             x="101.99245"
             y="-234.3022"
             transform="matrix(-0.72898231,0.68453254,-1,0,0,0)" />
        </g>
        <g
           id="g4209"
           style="opacity:0.70903"
           transform="matrix(0.42857145,0,0,0.42857145,45.225486,68.445089)">
          <rect
             style="fill:#ed1313;fill-opacity:1;stroke:#dfacfd;stroke-width:0;stroke-dasharray:none"
             id="rect4203"
             width="75.727615"
             height="75.727615"
             x="55.77985"
             y="98.261192" />
          <rect
             style="fill:#13eddc;fill-opacity:1;stroke:#dfacfd;stroke-width:0;stroke-dasharray:none"
             id="rect4205"
             width="39.335896"
             height="77.356163"
             x="186.71428"
             y="229.177"
             transform="matrix(0.70432461,-0.70987804,0,1,0,0)" />
          <rect
             style="fill:#f0f709;fill-opacity:1;stroke:#dfacfd;stroke-width:0;stroke-dasharray:none"
             id="rect4207"
             width="41.552509"
             height="75.727615"
             x="101.99245"
             y="-234.3022"
             transform="matrix(-0.72898231,0.68453254,-1,0,0,0)" />
        </g>
        <g
           id="g4217"
           style="opacity:0.70903"
           transform="matrix(0.42857145,0,0,0.42857145,84.382202,69.183895)">
          <rect
             style="fill:#ed1313;fill-opacity:1;stroke:#dfacfd;stroke-width:0;stroke-dasharray:none"
             id="rect4211"
             width="75.727615"
             height="75.727615"
             x="55.77985"
             y="98.261192" />
          <rect
             style="fill:#13eddc;fill-opacity:1;stroke:#dfacfd;stroke-width:0;stroke-dasharray:none"
             id="rect4213"
             width="39.335896"
             height="77.356163"
             x="186.71428"
             y="229.177"
             transform="matrix(0.70432461,-0.70987804,0,1,0,0)" />
          <rect
             style="fill:#f0f709;fill-opacity:1;stroke:#dfacfd;stroke-width:0;stroke-dasharray:none"
             id="rect4215"
             width="41.552509"
             height="75.727615"
             x="101.99245"
             y="-234.3022"
             transform="matrix(-0.72898231,0.68453254,-1,0,0,0)" />
        </g>
      </g>
      <g
         id="g4245"
         transform="translate(0.73880597,38.787314)">
        <g
           id="g4227"
           style="opacity:0.70903"
           transform="matrix(0.42857145,0,0,0.42857145,6.06877,68.445089)">
          <rect
             style="fill:#ed1313;fill-opacity:1;stroke:#dfacfd;stroke-width:0;stroke-dasharray:none"
             id="rect4221"
             width="75.727615"
             height="75.727615"
             x="55.77985"
             y="98.261192" />
          <rect
             style="fill:#13eddc;fill-opacity:1;stroke:#dfacfd;stroke-width:0;stroke-dasharray:none"
             id="rect4223"
             width="39.335896"
             height="77.356163"
             x="186.71428"
             y="229.177"
             transform="matrix(0.70432461,-0.70987804,0,1,0,0)" />
          <rect
             style="fill:#f0f709;fill-opacity:1;stroke:#dfacfd;stroke-width:0;stroke-dasharray:none"
             id="rect4225"
             width="41.552509"
             height="75.727615"
             x="101.99245"
             y="-234.3022"
             transform="matrix(-0.72898231,0.68453254,-1,0,0,0)" />
        </g>
        <g
           id="g4235"
           style="opacity:0.70903"
           transform="matrix(0.42857145,0,0,0.42857145,45.225486,68.445089)">
          <rect
             style="fill:#ed1313;fill-opacity:1;stroke:#dfacfd;stroke-width:0;stroke-dasharray:none"
             id="rect4229"
             width="75.727615"
             height="75.727615"
             x="55.77985"
             y="98.261192" />
          <rect
             style="fill:#13eddc;fill-opacity:1;stroke:#dfacfd;stroke-width:0;stroke-dasharray:none"
             id="rect4231"
             width="39.335896"
             height="77.356163"
             x="186.71428"
             y="229.177"
             transform="matrix(0.70432461,-0.70987804,0,1,0,0)" />
          <rect
             style="fill:#f0f709;fill-opacity:1;stroke:#dfacfd;stroke-width:0;stroke-dasharray:none"
             id="rect4233"
             width="41.552509"
             height="75.727615"
             x="101.99245"
             y="-234.3022"
             transform="matrix(-0.72898231,0.68453254,-1,0,0,0)" />
        </g>
        <g
           id="g4243"
           style="opacity:0.70903"
           transform="matrix(0.42857145,0,0,0.42857145,84.382202,69.183895)">
          <rect
             style="fill:#ed1313;fill-opacity:1;stroke:#dfacfd;stroke-width:0;stroke-dasharray:none"
             id="rect4237"
             width="75.727615"
             height="75.727615"
             x="55.77985"
             y="98.261192" />
          <rect
             style="fill:#13eddc;fill-opacity:1;stroke:#dfacfd;stroke-width:0;stroke-dasharray:none"
             id="rect4239"
             width="39.335896"
             height="77.356163"
             x="186.71428"
             y="229.177"
             transform="matrix(0.70432461,-0.70987804,0,1,0,0)" />
          <rect
             style="fill:#f0f709;fill-opacity:1;stroke:#dfacfd;stroke-width:0;stroke-dasharray:none"
             id="rect4241"
             width="41.552509"
             height="75.727615"
             x="101.99245"
             y="-234.3022"
             transform="matrix(-0.72898231,0.68453254,-1,0,0,0)" />
        </g>
      </g>
      <g
         id="g4271">
        <g
           id="g4253"
           style="opacity:0.70903"
           transform="matrix(0.42857145,0,0,0.42857145,6.06877,68.445089)">
          <rect
             style="fill:#ed1313;fill-opacity:1;stroke:#dfacfd;stroke-width:0;stroke-dasharray:none"
             id="rect4247"
             width="75.727615"
             height="75.727615"
             x="55.77985"
             y="98.261192" />
          <rect
             style="fill:#13eddc;fill-opacity:1;stroke:#dfacfd;stroke-width:0;stroke-dasharray:none"
             id="rect4249"
             width="39.335896"
             height="77.356163"
             x="186.71428"
             y="229.177"
             transform="matrix(0.70432461,-0.70987804,0,1,0,0)" />
          <rect
             style="fill:#f0f709;fill-opacity:1;stroke:#dfacfd;stroke-width:0;stroke-dasharray:none"
             id="rect4251"
             width="41.552509"
             height="75.727615"
             x="101.99245"
             y="-234.3022"
             transform="matrix(-0.72898231,0.68453254,-1,0,0,0)" />
        </g>
        <g
           id="g4261"
           style="opacity:0.70903"
           transform="matrix(0.42857145,0,0,0.42857145,45.225486,68.445089)">
          <rect
             style="fill:#ed1313;fill-opacity:1;stroke:#dfacfd;stroke-width:0;stroke-dasharray:none"
             id="rect4255"
             width="75.727615"
             height="75.727615"
             x="55.77985"
             y="98.261192" />
          <rect
             style="fill:#13eddc;fill-opacity:1;stroke:#dfacfd;stroke-width:0;stroke-dasharray:none"
             id="rect4257"
             width="39.335896"
             height="77.356163"
             x="186.71428"
             y="229.177"
             transform="matrix(0.70432461,-0.70987804,0,1,0,0)" />
          <rect
             style="fill:#f0f709;fill-opacity:1;stroke:#dfacfd;stroke-width:0;stroke-dasharray:none"
             id="rect4259"
             width="41.552509"
             height="75.727615"
             x="101.99245"
             y="-234.3022"
             transform="matrix(-0.72898231,0.68453254,-1,0,0,0)" />
        </g>
        <g
           id="g4269"
           style="opacity:0.70903"
           transform="matrix(0.42857145,0,0,0.42857145,84.382202,69.183895)">
          <rect
             style="fill:#ed1313;fill-opacity:1;stroke:#dfacfd;stroke-width:0;stroke-dasharray:none"
             id="rect4263"
             width="75.727615"
             height="75.727615"
             x="55.77985"
             y="98.261192" />
          <rect
             style="fill:#13eddc;fill-opacity:1;stroke:#dfacfd;stroke-width:0;stroke-dasharray:none"
             id="rect4265"
             width="39.335896"
             height="77.356163"
             x="186.71428"
             y="229.177"
             transform="matrix(0.70432461,-0.70987804,0,1,0,0)" />
          <rect
             style="fill:#f0f709;fill-opacity:1;stroke:#dfacfd;stroke-width:0;stroke-dasharray:none"
             id="rect4267"
             width="41.552509"
             height="75.727615"
             x="101.99245"
             y="-234.3022"
             transform="matrix(-0.72898231,0.68453254,-1,0,0,0)" />
        </g>
      </g>
    </g>
    <g
       id="g4033"
       transform="translate(-1.4776119,11.451493)"
       style="opacity:0.85017422">
      <g
         id="g3776"
         transform="translate(1.108209,77.94403)">
        <g
           id="g3758"
           style="opacity:0.70903"
           transform="matrix(0.42857145,0,0,0.42857145,6.06877,68.445089)">
          <rect
             style="fill:#ed1313;fill-opacity:1;stroke:#dfacfd;stroke-width:0;stroke-dasharray:none"
             id="rect3752"
             width="75.727615"
             height="75.727615"
             x="55.77985"
             y="98.261192" />
          <rect
             style="fill:#13eddc;fill-opacity:1;stroke:#dfacfd;stroke-width:0;stroke-dasharray:none"
             id="rect3754"
             width="39.335896"
             height="77.356163"
             x="186.71428"
             y="229.177"
             transform="matrix(0.70432461,-0.70987804,0,1,0,0)" />
          <rect
             style="fill:#f0f709;fill-opacity:1;stroke:#dfacfd;stroke-width:0;stroke-dasharray:none"
             id="rect3756"
             width="41.552509"
             height="75.727615"
             x="101.99245"
             y="-234.3022"
             transform="matrix(-0.72898231,0.68453254,-1,0,0,0)" />
        </g>
        <g
           id="g3766"
           style="opacity:0.70903"
           transform="matrix(0.42857145,0,0,0.42857145,45.225486,68.445089)">
          <rect
             style="fill:#ed1313;fill-opacity:1;stroke:#dfacfd;stroke-width:0;stroke-dasharray:none"
             id="rect3760"
             width="75.727615"
             height="75.727615"
             x="55.77985"
             y="98.261192" />
          <rect
             style="fill:#13eddc;fill-opacity:1;stroke:#dfacfd;stroke-width:0;stroke-dasharray:none"
             id="rect3762"
             width="39.335896"
             height="77.356163"
             x="186.71428"
             y="229.177"
             transform="matrix(0.70432461,-0.70987804,0,1,0,0)" />
          <rect
             style="fill:#f0f709;fill-opacity:1;stroke:#dfacfd;stroke-width:0;stroke-dasharray:none"
             id="rect3764"
             width="41.552509"
             height="75.727615"
             x="101.99245"
             y="-234.3022"
             transform="matrix(-0.72898231,0.68453254,-1,0,0,0)" />
        </g>
        <g
           id="g3774"
           style="opacity:0.70903"
           transform="matrix(0.42857145,0,0,0.42857145,84.382202,69.183895)">
          <rect
             style="fill:#ed1313;fill-opacity:1;stroke:#dfacfd;stroke-width:0;stroke-dasharray:none"
             id="rect3768"
             width="75.727615"
             height="75.727615"
             x="55.77985"
             y="98.261192" />
          <rect
             style="fill:#13eddc;fill-opacity:1;stroke:#dfacfd;stroke-width:0;stroke-dasharray:none"
             id="rect3770"
             width="39.335896"
             height="77.356163"
             x="186.71428"
             y="229.177"
             transform="matrix(0.70432461,-0.70987804,0,1,0,0)" />
          <rect
             style="fill:#f0f709;fill-opacity:1;stroke:#dfacfd;stroke-width:0;stroke-dasharray:none"
             id="rect3772"
             width="41.552509"
             height="75.727615"
             x="101.99245"
             y="-234.3022"
             transform="matrix(-0.72898231,0.68453254,-1,0,0,0)" />
        </g>
      </g>
      <g
         id="g3750"
         transform="translate(0.73880597,38.787314)">
        <g
           id="g3732"
           style="opacity:0.70903"
           transform="matrix(0.42857145,0,0,0.42857145,6.06877,68.445089)">
          <rect
             style="fill:#ed1313;fill-opacity:1;stroke:#dfacfd;stroke-width:0;stroke-dasharray:none"
             id="rect3726"
             width="75.727615"
             height="75.727615"
             x="55.77985"
             y="98.261192" />
          <rect
             style="fill:#13eddc;fill-opacity:1;stroke:#dfacfd;stroke-width:0;stroke-dasharray:none"
             id="rect3728"
             width="39.335896"
             height="77.356163"
             x="186.71428"
             y="229.177"
             transform="matrix(0.70432461,-0.70987804,0,1,0,0)" />
          <rect
             style="fill:#f0f709;fill-opacity:1;stroke:#dfacfd;stroke-width:0;stroke-dasharray:none"
             id="rect3730"
             width="41.552509"
             height="75.727615"
             x="101.99245"
             y="-234.3022"
             transform="matrix(-0.72898231,0.68453254,-1,0,0,0)" />
        </g>
        <g
           id="g3740"
           style="opacity:0.70903"
           transform="matrix(0.42857145,0,0,0.42857145,45.225486,68.445089)">
          <rect
             style="fill:#ed1313;fill-opacity:1;stroke:#dfacfd;stroke-width:0;stroke-dasharray:none"
             id="rect3734"
             width="75.727615"
             height="75.727615"
             x="55.77985"
             y="98.261192" />
          <rect
             style="fill:#13eddc;fill-opacity:1;stroke:#dfacfd;stroke-width:0;stroke-dasharray:none"
             id="rect3736"
             width="39.335896"
             height="77.356163"
             x="186.71428"
             y="229.177"
             transform="matrix(0.70432461,-0.70987804,0,1,0,0)" />
          <rect
             style="fill:#f0f709;fill-opacity:1;stroke:#dfacfd;stroke-width:0;stroke-dasharray:none"
             id="rect3738"
             width="41.552509"
             height="75.727615"
             x="101.99245"
             y="-234.3022"
             transform="matrix(-0.72898231,0.68453254,-1,0,0,0)" />
        </g>
        <g
           id="g3748"
           style="opacity:0.70903"
           transform="matrix(0.42857145,0,0,0.42857145,84.382202,69.183895)">
          <rect
             style="fill:#ed1313;fill-opacity:1;stroke:#dfacfd;stroke-width:0;stroke-dasharray:none"
             id="rect3742"
             width="75.727615"
             height="75.727615"
             x="55.77985"
             y="98.261192" />
          <rect
             style="fill:#13eddc;fill-opacity:1;stroke:#dfacfd;stroke-width:0;stroke-dasharray:none"
             id="rect3744"
             width="39.335896"
             height="77.356163"
             x="186.71428"
             y="229.177"
             transform="matrix(0.70432461,-0.70987804,0,1,0,0)" />
          <rect
             style="fill:#f0f709;fill-opacity:1;stroke:#dfacfd;stroke-width:0;stroke-dasharray:none"
             id="rect3746"
             width="41.552509"
             height="75.727615"
             x="101.99245"
             y="-234.3022"
             transform="matrix(-0.72898231,0.68453254,-1,0,0,0)" />
        </g>
      </g>
      <g
         id="g3724">
        <g
           id="g2960"
           style="opacity:0.70903"
           transform="matrix(0.42857145,0,0,0.42857145,6.06877,68.445089)">
          <rect
             style="fill:#ed1313;fill-opacity:1;stroke:#dfacfd;stroke-width:0;stroke-dasharray:none"
             id="rect1514"
             width="75.727615"
             height="75.727615"
             x="55.77985"
             y="98.261192" />
          <rect
             style="fill:#13eddc;fill-opacity:1;stroke:#dfacfd;stroke-width:0;stroke-dasharray:none"
             id="rect2227"
             width="39.335896"
             height="77.356163"
             x="186.71428"
             y="229.177"
             transform="matrix(0.70432461,-0.70987804,0,1,0,0)" />
          <rect
             style="fill:#f0f709;fill-opacity:1;stroke:#dfacfd;stroke-width:0;stroke-dasharray:none"
             id="rect2229"
             width="41.552509"
             height="75.727615"
             x="101.99245"
             y="-234.3022"
             transform="matrix(-0.72898231,0.68453254,-1,0,0,0)" />
        </g>
        <g
           id="g3702"
           style="opacity:0.70903"
           transform="matrix(0.42857145,0,0,0.42857145,45.225486,68.445089)">
          <rect
             style="fill:#ed1313;fill-opacity:1;stroke:#dfacfd;stroke-width:0;stroke-dasharray:none"
             id="rect3696"
             width="75.727615"
             height="75.727615"
             x="55.77985"
             y="98.261192" />
          <rect
             style="fill:#13eddc;fill-opacity:1;stroke:#dfacfd;stroke-width:0;stroke-dasharray:none"
             id="rect3698"
             width="39.335896"
             height="77.356163"
             x="186.71428"
             y="229.177"
             transform="matrix(0.70432461,-0.70987804,0,1,0,0)" />
          <rect
             style="fill:#f0f709;fill-opacity:1;stroke:#dfacfd;stroke-width:0;stroke-dasharray:none"
             id="rect3700"
             width="41.552509"
             height="75.727615"
             x="101.99245"
             y="-234.3022"
             transform="matrix(-0.72898231,0.68453254,-1,0,0,0)" />
        </g>
        <g
           id="g3710"
           style="opacity:0.70903"
           transform="matrix(0.42857145,0,0,0.42857145,84.382202,69.183895)">
          <rect
             style="fill:#ed1313;fill-opacity:1;stroke:#dfacfd;stroke-width:0;stroke-dasharray:none"
             id="rect3704"
             width="75.727615"
             height="75.727615"
             x="55.77985"
             y="98.261192" />
          <rect
             style="fill:#13eddc;fill-opacity:1;stroke:#dfacfd;stroke-width:0;stroke-dasharray:none"
             id="rect3706"
             width="39.335896"
             height="77.356163"
             x="186.71428"
             y="229.177"
             transform="matrix(0.70432461,-0.70987804,0,1,0,0)" />
          <rect
             style="fill:#f0f709;fill-opacity:1;stroke:#dfacfd;stroke-width:0;stroke-dasharray:none"
             id="rect3708"
             width="41.552509"
             height="75.727615"
             x="101.99245"
             y="-234.3022"
             transform="matrix(-0.72898231,0.68453254,-1,0,0,0)" />
        </g>
      </g>
    </g>
  </g>
</svg>
